<svg width="192" height="25" viewBox="0 0 192 25" fill="none" xmlns="http://www.w3.org/2000/svg">
<path d="M0.272 24V1.6H3.664V24H0.272ZM7.8895 24V1.6H11.8895L19.4735 16.512L27.0255 1.6H31.0255V24H27.6335V7.456L20.7855 20.8H18.1615L11.2815 7.488V24H7.8895ZM33.817 24L42.073 1.6H45.785L53.977 24H50.393L48.473 18.528H39.321L37.401 24H33.817ZM40.281 15.84H47.513L43.897 5.632L40.281 15.84ZM62.1888 24.384C60.0981 24.384 58.4341 23.7973 57.1968 22.624C55.9808 21.4507 55.3728 19.7973 55.3728 17.664H58.7648C58.7648 18.7307 59.0208 19.616 59.5328 20.32C60.0661 21.024 60.9301 21.376 62.1248 21.376C63.2981 21.376 64.1301 21.0453 64.6208 20.384C65.1114 19.7013 65.3568 18.8373 65.3568 17.792V1.6H68.7488V17.792C68.7488 19.904 68.1621 21.536 66.9888 22.688C65.8154 23.8187 64.2154 24.384 62.1888 24.384ZM72.9608 24V1.6H76.3528V24H72.9608Z" fill="#3F4E4F"/>
<path d="M98.3048 24.384C96.0861 24.384 94.1661 23.904 92.5448 22.944C90.9448 21.9627 89.7074 20.608 88.8328 18.88C87.9581 17.1307 87.5208 15.1147 87.5208 12.832C87.5208 10.528 87.9581 8.512 88.8328 6.784C89.7074 5.03467 90.9448 3.66933 92.5448 2.688C94.1661 1.70667 96.0861 1.216 98.3048 1.216C100.929 1.216 103.073 1.856 104.737 3.136C106.401 4.416 107.457 6.208 107.905 8.512H104.129C103.83 7.21067 103.19 6.176 102.209 5.408C101.227 4.64 99.9154 4.256 98.2728 4.256C96.0328 4.256 94.2621 5.024 92.9608 6.56C91.6594 8.07467 91.0088 10.1653 91.0088 12.832C91.0088 15.4773 91.6594 17.5573 92.9608 19.072C94.2621 20.5867 96.0328 21.344 98.2728 21.344C99.9154 21.344 101.227 20.9813 102.209 20.256C103.19 19.5307 103.83 18.5387 104.129 17.28H107.905C107.457 19.4987 106.401 21.2373 104.737 22.496C103.073 23.7547 100.929 24.384 98.3048 24.384ZM118.609 24.384C117.095 24.384 115.729 24.0427 114.513 23.36C113.319 22.656 112.369 21.6853 111.665 20.448C110.961 19.1893 110.609 17.728 110.609 16.064C110.609 14.4 110.961 12.9493 111.665 11.712C112.391 10.4533 113.361 9.48267 114.577 8.8C115.793 8.096 117.148 7.744 118.641 7.744C120.156 7.744 121.511 8.096 122.705 8.8C123.921 9.48267 124.881 10.4533 125.585 11.712C126.311 12.9493 126.673 14.4 126.673 16.064C126.673 17.728 126.311 19.1893 125.585 20.448C124.881 21.6853 123.921 22.656 122.705 23.36C121.489 24.0427 120.124 24.384 118.609 24.384ZM118.609 21.472C119.42 21.472 120.167 21.2693 120.849 20.864C121.553 20.4587 122.119 19.8613 122.545 19.072C122.972 18.2613 123.185 17.2587 123.185 16.064C123.185 14.8693 122.972 13.8773 122.545 13.088C122.14 12.2773 121.585 11.6693 120.881 11.264C120.199 10.8587 119.452 10.656 118.641 10.656C117.831 10.656 117.073 10.8587 116.369 11.264C115.687 11.6693 115.132 12.2773 114.705 13.088C114.279 13.8773 114.065 14.8693 114.065 16.064C114.065 17.2587 114.279 18.2613 114.705 19.072C115.132 19.8613 115.687 20.4587 116.369 20.864C117.052 21.2693 117.799 21.472 118.609 21.472ZM130.822 24V10.976H128.55V8.128H130.822V5.824C130.822 4.096 131.248 2.85867 132.102 2.112C132.976 1.344 134.203 0.959999 135.782 0.959999H137.446V3.84H136.294C135.547 3.84 135.014 4 134.694 4.32C134.374 4.61867 134.214 5.13067 134.214 5.856V8.128H137.862V10.976H134.214V24H130.822ZM141.564 24V10.976H139.292V8.128H141.564V5.824C141.564 4.096 141.991 2.85867 142.844 2.112C143.719 1.344 144.945 0.959999 146.524 0.959999H148.188V3.84H147.036C146.289 3.84 145.756 4 145.436 4.32C145.116 4.61867 144.956 5.13067 144.956 5.856V8.128H148.604V10.976H144.956V24H141.564ZM158.306 24.384C156.748 24.384 155.362 24.0427 154.146 23.36C152.951 22.656 152.012 21.6853 151.33 20.448C150.647 19.2107 150.306 17.7707 150.306 16.128C150.306 14.464 150.636 13.0027 151.298 11.744C151.98 10.4853 152.919 9.504 154.114 8.8C155.33 8.096 156.738 7.744 158.338 7.744C159.895 7.744 161.25 8.096 162.402 8.8C163.554 9.48267 164.45 10.4 165.09 11.552C165.73 12.704 166.05 13.9733 166.05 15.36C166.05 15.5733 166.039 15.808 166.018 16.064C166.018 16.2987 166.007 16.5653 165.986 16.864H153.634C153.74 18.4 154.242 19.5733 155.138 20.384C156.055 21.1733 157.111 21.568 158.306 21.568C159.266 21.568 160.066 21.3547 160.706 20.928C161.367 20.48 161.858 19.8827 162.178 19.136H165.57C165.143 20.6293 164.29 21.8773 163.01 22.88C161.751 23.8827 160.183 24.384 158.306 24.384ZM158.306 10.528C157.175 10.528 156.172 10.8693 155.298 11.552C154.423 12.2133 153.89 13.216 153.698 14.56H162.658C162.594 13.3227 162.156 12.3413 161.346 11.616C160.535 10.8907 159.522 10.528 158.306 10.528ZM176.673 24.384C175.116 24.384 173.729 24.0427 172.513 23.36C171.318 22.656 170.38 21.6853 169.697 20.448C169.014 19.2107 168.673 17.7707 168.673 16.128C168.673 14.464 169.004 13.0027 169.665 11.744C170.348 10.4853 171.286 9.504 172.481 8.8C173.697 8.096 175.105 7.744 176.705 7.744C178.262 7.744 179.617 8.096 180.769 8.8C181.921 9.48267 182.817 10.4 183.457 11.552C184.097 12.704 184.417 13.9733 184.417 15.36C184.417 15.5733 184.406 15.808 184.385 16.064C184.385 16.2987 184.374 16.5653 184.353 16.864H172.001C172.108 18.4 172.609 19.5733 173.505 20.384C174.422 21.1733 175.478 21.568 176.673 21.568C177.633 21.568 178.433 21.3547 179.073 20.928C179.734 20.48 180.225 19.8827 180.545 19.136H183.937C183.51 20.6293 182.657 21.8773 181.377 22.88C180.118 23.8827 178.55 24.384 176.673 24.384ZM176.673 10.528C175.542 10.528 174.54 10.8693 173.665 11.552C172.79 12.2133 172.257 13.216 172.065 14.56H181.025C180.961 13.3227 180.524 12.3413 179.713 11.616C178.902 10.8907 177.889 10.528 176.673 10.528ZM188.961 24.192C188.321 24.192 187.787 23.9893 187.361 23.584C186.955 23.1573 186.753 22.656 186.753 22.08C186.753 21.4827 186.955 20.9813 187.361 20.576C187.787 20.1493 188.321 19.936 188.961 19.936C189.601 19.936 190.123 20.1493 190.529 20.576C190.934 20.9813 191.137 21.4827 191.137 22.08C191.137 22.656 190.934 23.1573 190.529 23.584C190.123 23.9893 189.601 24.192 188.961 24.192Z" fill="#A27B5C"/>
</svg>
